<svg xmlns:xlink="http://www.w3.org/1999/xlink" id="Outlined" xmlns="http://www.w3.org/2000/svg" width="85" height="44" viewBox="0 0 85 44"><path id="art_" d="M1.0781,17.5449H6.3164v.9492H2.1328V21.207H6.1v.9375H2.1328v2.9063H6.3164V26H1.0781Zm6.8994,2.1387h1.02v.9492h.0937a1.8559,1.8559,0,0,1,1.84-1.0605A2.0589,2.0589,0,0,1,13.14,21.91V26H12.12V22.1562c0-1.1367-.4687-1.6816-1.4765-1.6816a1.5978,1.5978,0,0,0-1.6465,1.7871V26h-1.02Zm7.28,4.6758V20.5273h-.9961v-.8437h.9961V18.0488h1.0547v1.6348h1.3828v.8437H16.3125v3.5743c0,.7441.2578,1.0429.9141,1.0429a4.25,4.25,0,0,0,.4687-.0234v.8672a3.3815,3.3815,0,0,1-.5918.0586C15.8027,26.0469,15.2578,25.5664,15.2578,24.3594ZM19.1,19.6836h1.02v.9375h.0938A1.6446,1.6446,0,0,1,21.9,19.5723a3.4216,3.4216,0,0,1,.51.041v.99a3.6746,3.6746,0,0,0-.627-.0586,1.53,1.53,0,0,0-1.6641,1.541V26H19.1Zm3.958,3.1816v-.0058c0-1.9512,1.1133-3.2871,2.83-3.2871s2.76,1.2773,2.76,3.164v.3985H24.1006a1.8506,1.8506,0,0,0,1.875,2.0683,1.6286,1.6286,0,0,0,1.5527-.7851l.0235-.0528h1.02l-.0117.0469a2.5154,2.5154,0,0,1-2.6075,1.6992C24.1475,26.1113,23.0576,24.8457,23.0576,22.8652Zm1.0606-.5449H27.61c-.1055-1.248-.7969-1.84-1.7286-1.84A1.7762,1.7762,0,0,0,24.1182,22.32Zm6.39,2.0391V20.5273h-.9961v-.8437h.9961V18.0488h1.0547v1.6348h1.3828v.8437H31.5625v3.5743c0,.7441.2578,1.0429.9141,1.0429a4.25,4.25,0,0,0,.4687-.0234v.8672a3.3815,3.3815,0,0,1-.5918.0586C31.0527,26.0469,30.5078,25.5664,30.5078,24.3594Zm3.4365-1.4942v-.0058c0-1.9512,1.1133-3.2871,2.83-3.2871s2.76,1.2773,2.76,3.164v.3985H34.9873a1.8506,1.8506,0,0,0,1.875,2.0683,1.6286,1.6286,0,0,0,1.5527-.7851l.0235-.0528h1.02l-.0117.0469a2.5154,2.5154,0,0,1-2.6074,1.6992C35.0342,26.1113,33.9443,24.8457,33.9443,22.8652Zm1.0606-.5449h3.4922c-.1055-1.248-.7969-1.84-1.7285-1.84A1.7763,1.7763,0,0,0,35.0049,22.32Zm5.9912-2.6367h1.02v.9492h.0938a1.8559,1.8559,0,0,1,1.84-1.0605,2.059,2.059,0,0,1,2.209,2.3379V26h-1.02V22.1562c0-1.1367-.4688-1.6816-1.4766-1.6816a1.5978,1.5978,0,0,0-1.6465,1.7871V26h-1.02Zm6.7178-1.9219a.7031.7031,0,1,1,.7031.7031A.7052.7052,0,0,1,47.7139,17.7617Zm.1875,1.9219h1.02V26h-1.02Zm2.8213,0h1.0195v.9609h.0937a1.7231,1.7231,0,0,1,1.7051-1.0722A1.8234,1.8234,0,0,1,55.2871,20.68h.0938a2.1145,2.1145,0,0,1,1.9336-1.1074,1.8425,1.8425,0,0,1,2.01,2.0625V26h-1.02V21.8691c0-.9316-.4277-1.3945-1.3184-1.3945a1.4208,1.4208,0,0,0-1.459,1.4649V26H54.5078V21.7109a1.1964,1.1964,0,0,0-1.3125-1.2363,1.5225,1.5225,0,0,0-1.4531,1.6113V26H50.7227Zm10.0048,3.1816v-.0058c0-1.9512,1.1133-3.2871,2.83-3.2871s2.76,1.2773,2.76,3.164v.3985H61.7705a1.8506,1.8506,0,0,0,1.875,2.0683,1.6286,1.6286,0,0,0,1.5527-.7851l.0235-.0528h1.02l-.0117.0469a2.5153,2.5153,0,0,1-2.6074,1.6992C61.8174,26.1113,60.7275,24.8457,60.7275,22.8652Zm1.0606-.5449H65.28c-.1055-1.248-.7969-1.84-1.7285-1.84A1.7763,1.7763,0,0,0,61.7881,22.32ZM67.78,19.6836H68.8v.9492h.0938a1.8559,1.8559,0,0,1,1.84-1.0605,2.059,2.059,0,0,1,2.209,2.3379V26h-1.02V22.1562c0-1.1367-.4688-1.6816-1.4766-1.6816A1.5978,1.5978,0,0,0,68.8,22.2617V26H67.78Zm7.28,4.6758V20.5273h-.996v-.8437h.996V18.0488h1.0547v1.6348H77.498v.8437H76.1152v3.5743c0,.7441.2578,1.0429.9141,1.0429a4.25,4.25,0,0,0,.4687-.0234v.8672a3.3806,3.3806,0,0,1-.5918.0586C75.6055,26.0469,75.0605,25.5664,75.0605,24.3594Zm3.4366-1.5117v-.0118c0-2.0273,1.1133-3.2636,2.9121-3.2636s2.9121,1.2363,2.9121,3.2636v.0118c0,2.0214-1.1133,3.2636-2.9121,3.2636S78.4971,24.8691,78.4971,22.8477Zm4.7812,0v-.0118c0-1.4941-.6738-2.3613-1.8691-2.3613s-1.8692.8672-1.8692,2.3613v.0118c0,1.4882.6739,2.3613,1.8692,2.3613S83.2783,24.3359,83.2783,22.8477Z" fill-opacity="0.8" fill="#FFFFFF"></path></svg>